<?xml version="1.0" encoding="UTF-8" standalone="no"?>
<!DOCTYPE svg PUBLIC "-//W3C//DTD SVG 1.1//EN" "http://www.w3.org/Graphics/SVG/1.1/DTD/svg11.dtd">
<svg xmlns="http://www.w3.org/2000/svg" version="1.1" viewBox="0.00 0.00 481.00 108.00">
<g stroke-width="2.00" fill="none" stroke-linecap="butt">
<path stroke="#5fc597" vector-effect="non-scaling-stroke" d="
  M 95.60 10.00
  Q 94.92 40.55 95.19 71.00
  Q 95.24 76.13 94.65 78.77
  Q 92.41 88.81 82.33 93.05
  Q 79.46 94.25 73.80 94.25
  Q 43.90 94.24 14.00 94.20
  Q 12.40 94.20 11.91 94.98"
/>
<path stroke="#5fc597" vector-effect="non-scaling-stroke" d="
  M 356.77 68.41
  L 356.50 39.28
  A 1.18 1.18 0.0 0 1 357.69 38.09
  L 368.03 38.13
  A 1.14 1.13 89.8 0 0 369.17 36.97
  L 369.08 31.82
  Q 369.06 30.80 368.03 30.79
  L 335.04 30.37"
/>
<path stroke="#5fc597" vector-effect="non-scaling-stroke" d="
  M 356.94 72.35
  Q 353.49 73.75 348.63 73.11
  A 0.91 0.90 -86.4 0 1 347.84 72.21
  L 347.86 39.29
  A 1.19 1.18 -1.2 0 0 346.62 38.11
  Q 341.46 38.32 336.76 38.49
  Q 335.64 38.53 335.99 38.98"
/>
<path stroke="#5fc597" vector-effect="non-scaling-stroke" d="
  M 400.34 38.61
  Q 401.84 35.12 400.78 31.26
  Q 400.64 30.77 400.14 30.76
  L 372.99 30.40"
/>
<path stroke="#5fc597" vector-effect="non-scaling-stroke" d="
  M 396.85 38.52
  L 382.09 38.41"
/>
<path stroke="#5fc597" vector-effect="non-scaling-stroke" d="
  M 381.91 47.46
  Q 389.68 48.51 397.36 47.93
  A 0.87 0.86 -2.2 0 1 398.29 48.79
  L 398.26 53.87
  A 1.19 1.19 0.0 0 1 397.10 55.05
  Q 389.78 55.26 382.63 55.11
  A 0.81 0.81 0.0 0 0 381.87 55.61
  Q 381.80 55.79 382.01 55.99"
/>
<path stroke="#5fc597" vector-effect="non-scaling-stroke" d="
  M 382.75 65.40
  Q 382.83 65.97 383.25 65.98
  Q 389.98 66.12 398.75 65.54"
/>
<path stroke="#5fc597" vector-effect="non-scaling-stroke" d="
  M 401.61 66.21
  L 401.55 71.72
  A 1.62 1.62 0.0 0 1 399.95 73.32
  L 372.99 73.61"
/>
<path stroke="#5fc597" vector-effect="non-scaling-stroke" d="
  M 430.67 30.14
  L 434.61 31.06"
/>
<path stroke="#5fc597" vector-effect="non-scaling-stroke" d="
  M 434.82 36.70
  Q 434.19 38.69 432.74 38.26
  Q 432.40 38.16 432.12 38.38
  Q 431.96 38.51 431.76 38.56"
/>
<path stroke="#5fc597" vector-effect="non-scaling-stroke" d="
  M 429.97 38.28
  Q 426.31 36.88 421.74 38.15
  Q 417.23 39.41 415.65 43.28
  Q 413.25 49.17 414.64 57.48
  Q 415.79 64.35 421.77 66.05
  Q 425.32 67.07 429.77 65.92"
/>
<path stroke="#5fc597" vector-effect="non-scaling-stroke" d="
  M 422.71 73.86
  Q 409.40 72.45 405.95 61.22
  Q 405.63 60.18 405.37 58.32
  Q 405.16 56.84 404.89 55.39
  Q 404.73 54.58 404.84 53.15
  Q 404.95 51.66 404.26 50.89"
/>
<path stroke="#5fc597" vector-effect="non-scaling-stroke" d="
  M 448.67 69.73
  Q 448.27 70.10 448.24 68.99
  Q 448.06 62.52 448.03 56.18
  A 0.91 0.91 0.0 0 1 448.95 55.26
  L 463.58 55.33
  A 1.24 1.23 0.9 0 1 464.81 56.59
  L 464.49 71.73
  Q 464.46 73.24 465.98 73.24
  L 471.84 73.24
  Q 473.17 73.25 473.17 71.91
  L 473.15 31.94
  A 1.20 1.19 -0.2 0 0 471.94 30.75
  L 465.73 30.81
  A 1.20 1.19 89.5 0 0 464.55 32.02
  L 464.70 46.22
  A 1.44 1.44 0.0 0 1 463.28 47.67
  L 449.13 47.81
  A 1.16 1.16 0.0 0 1 447.95 46.63
  L 448.20 32.06
  Q 448.22 30.79 446.95 30.77
  L 439.32 30.71"
/>
<path stroke="#5fc597" vector-effect="non-scaling-stroke" d="
  M 448.68 72.17
  Q 445.20 73.91 439.01 73.35"
/>
<path stroke="#678b7d" vector-effect="non-scaling-stroke" d="
  M 154.39 30.94
  L 154.60 74.01"
/>
<path stroke="#6e6b6c" vector-effect="non-scaling-stroke" d="
  M 146.23 73.96
  Q 145.87 73.66 145.62 73.35
  Q 145.38 73.04 145.38 72.66
  Q 145.36 64.71 145.43 56.63
  Q 145.43 56.50 145.32 56.44
  Q 145.20 56.38 145.05 56.46"
/>
<path stroke="#6e6b6c" vector-effect="non-scaling-stroke" d="
  M 129.46 47.49
  Q 129.45 47.66 129.50 47.76
  Q 129.56 47.86 129.68 47.86
  L 144.52 47.88
  Q 145.40 47.89 145.39 47.00
  L 145.22 31.62"
/>
<path stroke="#6e6b6c" vector-effect="non-scaling-stroke" d="
  M 189.53 31.00
  L 189.01 37.37
  A 1.02 1.00 -87.2 0 1 188.00 38.30
  L 170.83 38.20
  A 0.62 0.61 -89.5 0 0 170.21 38.82
  L 170.32 48.08"
/>
<path stroke="#6e6b6c" vector-effect="non-scaling-stroke" d="
  M 186.64 48.02
  L 186.15 54.74
  A 0.88 0.88 0.0 0 1 185.26 55.56
  L 171.02 55.47
  A 1.01 1.01 0.0 0 0 170.01 56.48
  L 170.00 65.81
  A 0.81 0.81 0.0 0 0 170.81 66.62
  L 187.99 66.58
  A 1.42 1.41 0.6 0 1 189.41 68.02
  L 189.29 73.94"
/>
<path stroke="#6e6b6c" vector-effect="non-scaling-stroke" d="
  M 161.34 70.96
  L 161.32 32.45"
/>
<path stroke="#6e6b6c" vector-effect="non-scaling-stroke" d="
  M 216.95 31.30
  Q 221.88 51.13 228.41 70.50"
/>
<path stroke="#6e6b6c" vector-effect="non-scaling-stroke" d="
  M 220.45 73.89
  L 217.58 62.87
  A 1.10 1.09 -6.9 0 0 216.53 62.06
  L 203.75 62.05
  Q 202.47 62.04 202.30 63.31
  Q 202.22 63.90 202.47 64.20"
/>
<path stroke="#6e6b6c" vector-effect="non-scaling-stroke" d="
  M 201.88 66.20
  Q 201.53 66.26 201.27 67.00
  Q 200.43 69.32 200.34 71.58"
/>
<path stroke="#6e6b6c" vector-effect="non-scaling-stroke" d="
  M 191.22 73.95
  Q 191.25 73.51 190.86 72.97"
/>
<path stroke="#6e6b6c" vector-effect="non-scaling-stroke" d="
  M 193.25 64.80
  L 202.62 33.04"
/>
<path stroke="#6e6b6c" vector-effect="non-scaling-stroke" d="
  M 260.45 65.96
  Q 259.58 70.11 260.33 74.03"
/>
<path stroke="#6e6b6c" vector-effect="non-scaling-stroke" d="
  M 277.29 38.97
  Q 277.24 38.39 276.45 38.83
  A 0.80 0.79 -15.0 0 0 276.05 39.52
  L 276.04 73.92"
/>
<path stroke="#6e6b6c" vector-effect="non-scaling-stroke" d="
  M 267.17 68.46
  Q 267.43 69.33 267.39 70.35
  Q 267.38 70.76 267.51 70.37
  Q 267.64 69.98 267.64 69.25
  Q 267.57 49.45 267.19 39.16"
/>
<path stroke="#6e6b6c" vector-effect="non-scaling-stroke" d="
  M 261.22 38.84
  Q 258.88 38.38 256.02 38.97"
/>
<path stroke="#6e6b6c" vector-effect="non-scaling-stroke" d="
  M 255.09 38.90
  L 254.38 31.09"
/>
<path stroke="#6e6b6c" vector-effect="non-scaling-stroke" d="
  M 301.68 31.01
  L 301.23 46.71
  A 1.21 1.20 -89.8 0 0 302.45 47.95
  L 317.31 47.80
  A 0.57 0.57 0.0 0 0 317.88 47.22
  L 317.61 31.09"
/>
<path stroke="#6e6b6c" vector-effect="non-scaling-stroke" d="
  M 301.78 55.99
  Q 300.94 60.20 301.20 64.77
  Q 301.46 69.31 301.42 73.99"
/>
<path stroke="#6e6b6c" vector-effect="non-scaling-stroke" d="
  M 292.55 74.07
  Q 293.34 53.02 292.63 32.25
  Q 292.62 31.89 292.54 31.11"
/>
<path stroke="#93d5b4" vector-effect="non-scaling-stroke" d="
  M 44.02 61.58
  C 43.91 63.87 44.12 66.60 44.82 68.74
  C 47.02 75.41 53.56 79.81 60.63 78.80
  C 69.71 77.50 74.37 70.06 73.55 61.23
  Q 73.48 60.54 74.13 60.30
  C 77.59 59.00 79.38 54.78 77.12 51.50
  C 74.80 48.13 70.34 47.88 67.62 50.72
  C 64.47 54.00 66.08 58.28 69.73 60.31
  Q 70.29 60.62 70.35 61.25
  Q 71.14 69.28 65.97 73.29
  C 59.82 78.05 51.38 75.85 48.22 68.69
  Q 46.82 65.52 47.33 61.31
  Q 47.38 60.86 47.80 60.68
  Q 48.24 60.48 48.72 60.51
  Q 49.25 60.54 49.75 60.38
  Q 59.79 57.10 60.93 46.32
  Q 61.58 40.15 62.19 33.14
  Q 62.49 29.76 59.44 27.49
  Q 59.03 27.18 58.51 27.16
  Q 56.79 27.09 55.67 25.69
  Q 55.36 25.30 54.87 25.21
  Q 52.18 24.67 50.84 26.76
  C 48.77 29.97 53.23 33.36 55.96 30.61
  A 1.57 1.56 53.3 0 1 58.45 30.98
  Q 59.07 32.12 58.94 33.50
  Q 58.43 39.34 57.83 44.76
  Q 57.27 49.82 56.19 51.57
  C 49.74 61.93 34.78 58.36 33.52 46.15
  Q 32.86 39.76 32.30 33.31
  Q 32.13 31.32 33.77 30.24
  A 0.91 0.91 0.0 0 1 34.72 30.22
  C 35.40 30.61 35.57 31.12 36.40 31.40
  C 39.38 32.43 41.87 29.47 40.39 26.58
  C 39.22 24.33 36.24 24.77 34.87 26.40
  A 1.42 1.41 -74.8 0 1 34.04 26.88
  Q 28.79 27.81 29.13 33.31
  Q 29.72 42.65 30.65 48.08
  Q 32.47 58.62 43.41 60.79
  Q 44.06 60.91 44.02 61.58"
/>
<path stroke="#93d5b4" vector-effect="non-scaling-stroke" d="
  M 48.29 40.59
  A 1.04 1.04 0.0 0 1 47.48 39.78
  L 46.71 36.01
  A 1.04 1.04 0.0 0 0 44.67 36.01
  L 43.89 39.77
  A 1.04 1.04 0.0 0 1 43.08 40.58
  L 39.31 41.35
  A 1.04 1.04 0.0 0 0 39.31 43.39
  L 43.07 44.17
  A 1.04 1.04 0.0 0 1 43.88 44.98
  L 44.65 48.75
  A 1.04 1.04 0.0 0 0 46.69 48.75
  L 47.47 44.99
  A 1.04 1.04 0.0 0 1 48.28 44.18
  L 52.05 43.41
  A 1.04 1.04 0.0 0 0 52.05 41.37
  L 48.29 40.59"
/>
<path stroke="#93d5b4" vector-effect="non-scaling-stroke" d="
  M 74.88 54.77
  A 2.85 2.85 0.0 0 0 72.03 51.92
  A 2.85 2.85 0.0 0 0 69.18 54.77
  A 2.85 2.85 0.0 0 0 72.03 57.62
  A 2.85 2.85 0.0 0 0 74.88 54.77"
/>
<path stroke="#6e6b6c" vector-effect="non-scaling-stroke" d="
  M 208.94 41.25
  Q 207.68 43.11 207.24 45.17
  Q 206.67 47.87 206.21 49.20
  Q 205.43 51.46 205.31 53.81"
/>
<path stroke="#6e6b6c" vector-effect="non-scaling-stroke" d="
  M 214.73 54.56
  L 210.57 37.74
  Q 210.45 37.24 209.93 37.22
  Q 209.21 37.20 209.13 38.00
  Q 209.07 38.67 209.33 39.24"
/>
</g>
<path fill="#26ab69" d="
  M 95.60 10.00
  Q 94.92 40.55 95.19 71.00
  Q 95.24 76.13 94.65 78.77
  Q 92.41 88.81 82.33 93.05
  Q 79.46 94.25 73.80 94.25
  Q 43.90 94.24 14.00 94.20
  Q 12.40 94.20 11.91 94.98
  Q 11.72 94.99 11.47 94.90
  Q 11.07 94.75 11.06 94.32
  Q 10.92 62.96 10.96 30.41
  C 10.96 27.64 10.93 24.78 12.09 22.26
  Q 16.07 13.63 25.24 10.45
  Q 26.69 9.95 30.75 9.95
  Q 62.38 9.99 95.60 10.00
  Z
  M 44.02 61.58
  C 43.91 63.87 44.12 66.60 44.82 68.74
  C 47.02 75.41 53.56 79.81 60.63 78.80
  C 69.71 77.50 74.37 70.06 73.55 61.23
  Q 73.48 60.54 74.13 60.30
  C 77.59 59.00 79.38 54.78 77.12 51.50
  C 74.80 48.13 70.34 47.88 67.62 50.72
  C 64.47 54.00 66.08 58.28 69.73 60.31
  Q 70.29 60.62 70.35 61.25
  Q 71.14 69.28 65.97 73.29
  C 59.82 78.05 51.38 75.85 48.22 68.69
  Q 46.82 65.52 47.33 61.31
  Q 47.38 60.86 47.80 60.68
  Q 48.24 60.48 48.72 60.51
  Q 49.25 60.54 49.75 60.38
  Q 59.79 57.10 60.93 46.32
  Q 61.58 40.15 62.19 33.14
  Q 62.49 29.76 59.44 27.49
  Q 59.03 27.18 58.51 27.16
  Q 56.79 27.09 55.67 25.69
  Q 55.36 25.30 54.87 25.21
  Q 52.18 24.67 50.84 26.76
  C 48.77 29.97 53.23 33.36 55.96 30.61
  A 1.57 1.56 53.3 0 1 58.45 30.98
  Q 59.07 32.12 58.94 33.50
  Q 58.43 39.34 57.83 44.76
  Q 57.27 49.82 56.19 51.57
  C 49.74 61.93 34.78 58.36 33.52 46.15
  Q 32.86 39.76 32.30 33.31
  Q 32.13 31.32 33.77 30.24
  A 0.91 0.91 0.0 0 1 34.72 30.22
  C 35.40 30.61 35.57 31.12 36.40 31.40
  C 39.38 32.43 41.87 29.47 40.39 26.58
  C 39.22 24.33 36.24 24.77 34.87 26.40
  A 1.42 1.41 -74.8 0 1 34.04 26.88
  Q 28.79 27.81 29.13 33.31
  Q 29.72 42.65 30.65 48.08
  Q 32.47 58.62 43.41 60.79
  Q 44.06 60.91 44.02 61.58
  Z
  M 48.29 40.59
  A 1.04 1.04 0.0 0 1 47.48 39.78
  L 46.71 36.01
  A 1.04 1.04 0.0 0 0 44.67 36.01
  L 43.89 39.77
  A 1.04 1.04 0.0 0 1 43.08 40.58
  L 39.31 41.35
  A 1.04 1.04 0.0 0 0 39.31 43.39
  L 43.07 44.17
  A 1.04 1.04 0.0 0 1 43.88 44.98
  L 44.65 48.75
  A 1.04 1.04 0.0 0 0 46.69 48.75
  L 47.47 44.99
  A 1.04 1.04 0.0 0 1 48.28 44.18
  L 52.05 43.41
  A 1.04 1.04 0.0 0 0 52.05 41.37
  L 48.29 40.59
  Z"
/>
<path fill="#98dfc4" d="
  M 95.60 10.00
  Q 96.62 56.13 96.01 73.75
  Q 95.48 89.18 80.52 94.22
  Q 77.54 95.23 71.00 95.19
  Q 41.52 95.04 11.91 94.98
  Q 12.40 94.20 14.00 94.20
  Q 43.90 94.24 73.80 94.25
  Q 79.46 94.25 82.33 93.05
  Q 92.41 88.81 94.65 78.77
  Q 95.24 76.13 95.19 71.00
  Q 94.92 40.55 95.60 10.00
  Z"
/>
<path fill="#ffffff" d="
  M 43.41 60.79
  Q 32.47 58.62 30.65 48.08
  Q 29.72 42.65 29.13 33.31
  Q 28.79 27.81 34.04 26.88
  A 1.42 1.41 -74.8 0 0 34.87 26.40
  C 36.24 24.77 39.22 24.33 40.39 26.58
  C 41.87 29.47 39.38 32.43 36.40 31.40
  C 35.57 31.12 35.40 30.61 34.72 30.22
  A 0.91 0.91 0.0 0 0 33.77 30.24
  Q 32.13 31.32 32.30 33.31
  Q 32.86 39.76 33.52 46.15
  C 34.78 58.36 49.74 61.93 56.19 51.57
  Q 57.27 49.82 57.83 44.76
  Q 58.43 39.34 58.94 33.50
  Q 59.07 32.12 58.45 30.98
  A 1.57 1.56 53.3 0 0 55.96 30.61
  C 53.23 33.36 48.77 29.97 50.84 26.76
  Q 52.18 24.67 54.87 25.21
  Q 55.36 25.30 55.67 25.69
  Q 56.79 27.09 58.51 27.16
  Q 59.03 27.18 59.44 27.49
  Q 62.49 29.76 62.19 33.14
  Q 61.58 40.15 60.93 46.32
  Q 59.79 57.10 49.75 60.38
  Q 49.25 60.54 48.72 60.51
  Q 48.24 60.48 47.80 60.68
  Q 47.38 60.86 47.33 61.31
  Q 46.82 65.52 48.22 68.69
  C 51.38 75.85 59.82 78.05 65.97 73.29
  Q 71.14 69.28 70.35 61.25
  Q 70.29 60.62 69.73 60.31
  C 66.08 58.28 64.47 54.00 67.62 50.72
  C 70.34 47.88 74.80 48.13 77.12 51.50
  C 79.38 54.78 77.59 59.00 74.13 60.30
  Q 73.48 60.54 73.55 61.23
  C 74.37 70.06 69.71 77.50 60.63 78.80
  C 53.56 79.81 47.02 75.41 44.82 68.74
  C 44.12 66.60 43.91 63.87 44.02 61.58
  Q 44.06 60.91 43.41 60.79
  Z
  M 74.88 54.77
  A 2.85 2.85 0.0 0 0 72.03 51.92
  A 2.85 2.85 0.0 0 0 69.18 54.77
  A 2.85 2.85 0.0 0 0 72.03 57.62
  A 2.85 2.85 0.0 0 0 74.88 54.77
  Z"
/>
<path fill="#98dfc4" d="
  M 356.77 68.41
  L 356.50 39.28
  A 1.18 1.18 0.0 0 1 357.69 38.09
  L 368.03 38.13
  A 1.14 1.13 89.8 0 0 369.17 36.97
  L 369.08 31.82
  Q 369.06 30.80 368.03 30.79
  L 335.04 30.37
  L 368.85 30.12
  Q 370.00 30.11 370.00 31.26
  L 370.00 37.75
  Q 370.00 39.00 368.75 39.00
  L 357.51 39.00
  Q 356.99 39.00 356.99 39.52
  L 356.77 68.41
  Z"
/>
<path fill="#98dfc4" d="
  M 400.34 38.61
  Q 401.84 35.12 400.78 31.26
  Q 400.64 30.77 400.14 30.76
  L 372.99 30.40
  L 400.90 30.04
  A 1.04 1.03 87.3 0 1 401.94 30.99
  Q 402.13 33.43 402.01 36.25
  Q 401.94 38.15 400.34 38.61
  Z"
/>
<path fill="#26ab69" d="
  M 430.67 30.14
  L 434.61 31.06
  L 434.82 36.70
  Q 434.19 38.69 432.74 38.26
  Q 432.40 38.16 432.12 38.38
  Q 431.96 38.51 431.76 38.56
  Q 430.71 38.60 429.97 38.28
  Q 426.31 36.88 421.74 38.15
  Q 417.23 39.41 415.65 43.28
  Q 413.25 49.17 414.64 57.48
  Q 415.79 64.35 421.77 66.05
  Q 425.32 67.07 429.77 65.92
  L 433.34 65.07
  Q 435.06 64.67 435.02 66.44
  L 434.91 71.67
  Q 434.88 73.11 433.46 73.38
  Q 428.50 74.32 422.71 73.86
  Q 409.40 72.45 405.95 61.22
  Q 405.63 60.18 405.37 58.32
  Q 405.16 56.84 404.89 55.39
  Q 404.73 54.58 404.84 53.15
  Q 404.95 51.66 404.26 50.89
  Q 404.74 47.67 405.46 44.26
  C 408.19 31.28 419.26 29.13 430.67 30.14
  Z"
/>
<path fill="#98dfc4" d="
  M 430.67 30.14
  Q 431.72 29.98 433.50 30.16
  Q 434.36 30.24 434.61 31.06
  L 430.67 30.14
  Z"
/>
<path fill="#98dfc4" d="
  M 448.67 69.73
  Q 448.27 70.10 448.24 68.99
  Q 448.06 62.52 448.03 56.18
  A 0.91 0.91 0.0 0 1 448.95 55.26
  L 463.58 55.33
  A 1.24 1.23 0.9 0 1 464.81 56.59
  L 464.49 71.73
  Q 464.46 73.24 465.98 73.24
  L 471.84 73.24
  Q 473.17 73.25 473.17 71.91
  L 473.15 31.94
  A 1.20 1.19 -0.2 0 0 471.94 30.75
  L 465.73 30.81
  A 1.20 1.19 89.5 0 0 464.55 32.02
  L 464.70 46.22
  A 1.44 1.44 0.0 0 1 463.28 47.67
  L 449.13 47.81
  A 1.16 1.16 0.0 0 1 447.95 46.63
  L 448.20 32.06
  Q 448.22 30.79 446.95 30.77
  L 439.32 30.71
  Q 439.20 30.49 439.33 30.29
  Q 439.49 30.02 439.80 30.02
  L 446.72 29.99
  A 1.98 1.97 89.9 0 1 448.70 31.97
  L 448.67 46.46
  Q 448.67 47.01 449.21 47.01
  L 463.50 47.01
  Q 464.02 47.01 464.02 46.50
  L 464.01 30.74
  Q 464.01 29.99 464.76 29.99
  L 473.01 30.01
  A 1.00 1.00 0.0 0 1 474.00 31.01
  L 474.00 72.99
  A 1.00 0.99 -90.0 0 1 473.01 73.99
  L 464.75 74.01
  Q 464.00 74.01 464.00 73.25
  L 464.02 56.51
  Q 464.02 55.99 463.51 55.99
  L 449.01 55.99
  Q 448.66 55.99 448.66 56.33
  L 448.67 69.73
  Z"
/>
<path fill="#26ab69" d="
  M 400.34 38.61
  Q 398.30 38.94 396.85 38.52
  L 382.09 38.41
  L 381.91 47.46
  Q 389.68 48.51 397.36 47.93
  A 0.87 0.86 -2.2 0 1 398.29 48.79
  L 398.26 53.87
  A 1.19 1.19 0.0 0 1 397.10 55.05
  Q 389.78 55.26 382.63 55.11
  A 0.81 0.81 0.0 0 0 381.87 55.61
  Q 381.80 55.79 382.01 55.99
  L 382.05 64.95
  Q 382.05 65.36 382.46 65.39
  L 382.75 65.40
  Q 382.83 65.97 383.25 65.98
  Q 389.98 66.12 398.75 65.54
  Q 400.24 64.68 401.61 66.21
  L 401.55 71.72
  A 1.62 1.62 0.0 0 1 399.95 73.32
  L 372.99 73.61
  L 372.99 30.40
  L 400.14 30.76
  Q 400.64 30.77 400.78 31.26
  Q 401.84 35.12 400.34 38.61
  Z"
/>
<path fill="#363636" d="
  M 154.39 30.94
  L 154.60 74.01
  L 146.23 73.96
  Q 145.87 73.66 145.62 73.35
  Q 145.38 73.04 145.38 72.66
  Q 145.36 64.71 145.43 56.63
  Q 145.43 56.50 145.32 56.44
  Q 145.20 56.38 145.05 56.46
  Q 144.98 56.34 144.86 56.19
  A 0.50 0.49 70.7 0 0 144.47 56.00
  L 129.25 56.00
  Q 129.00 56.00 129.00 56.25
  L 129.00 73.50
  Q 129.00 74.00 128.50 74.00
  L 120.50 73.99
  Q 120.00 73.99 120.00 73.50
  L 120.00 32.00
  Q 120.00 30.99 121.01 30.99
  L 128.01 31.01
  A 0.98 0.98 0.0 0 1 128.99 31.98
  Q 129.01 39.13 128.99 47.10
  Q 128.99 47.27 129.09 47.39
  Q 129.26 47.60 129.46 47.49
  Q 129.45 47.66 129.50 47.76
  Q 129.56 47.86 129.68 47.86
  L 144.52 47.88
  Q 145.40 47.89 145.39 47.00
  L 145.22 31.62
  Q 148.07 30.65 154.39 30.94
  Z"
/>
<path fill="#98dfc4" d="
  M 154.39 30.94
  Q 155.00 32.85 155.04 35.50
  Q 155.31 54.69 154.60 74.01
  L 154.39 30.94
  Z"
/>
<path fill="#26ab69" d="
  M 335.04 30.37
  L 368.03 30.79
  Q 369.06 30.80 369.08 31.82
  L 369.17 36.97
  A 1.14 1.13 89.8 0 1 368.03 38.13
  L 357.69 38.09
  A 1.18 1.18 0.0 0 0 356.50 39.28
  L 356.77 68.41
  Q 357.19 69.56 356.94 72.35
  Q 353.49 73.75 348.63 73.11
  A 0.91 0.90 -86.4 0 1 347.84 72.21
  L 347.86 39.29
  A 1.19 1.18 -1.2 0 0 346.62 38.11
  Q 341.46 38.32 336.76 38.49
  Q 335.64 38.53 335.99 38.98
  L 335.63 38.95
  Q 335.09 38.89 335.09 38.35
  L 335.04 30.37
  Z"
/>
<path fill="#26ab69" d="
  M 439.32 30.71
  L 446.95 30.77
  Q 448.22 30.79 448.20 32.06
  L 447.95 46.63
  A 1.16 1.16 0.0 0 0 449.13 47.81
  L 463.28 47.67
  A 1.44 1.44 0.0 0 0 464.70 46.22
  L 464.55 32.02
  A 1.20 1.19 89.5 0 1 465.73 30.81
  L 471.94 30.75
  A 1.20 1.19 -0.2 0 1 473.15 31.94
  L 473.17 71.91
  Q 473.17 73.25 471.84 73.24
  L 465.98 73.24
  Q 464.46 73.24 464.49 71.73
  L 464.81 56.59
  A 1.24 1.23 0.9 0 0 463.58 55.33
  L 448.95 55.26
  A 0.91 0.91 0.0 0 0 448.03 56.18
  Q 448.06 62.52 448.24 68.99
  Q 448.27 70.10 448.67 69.73
  L 448.68 72.17
  Q 445.20 73.91 439.01 73.35
  L 439.32 30.71
  Z"
/>
<path fill="#363636" d="
  M 189.53 31.00
  L 189.01 37.37
  A 1.02 1.00 -87.2 0 1 188.00 38.30
  L 170.83 38.20
  A 0.62 0.61 -89.5 0 0 170.21 38.82
  L 170.32 48.08
  L 186.64 48.02
  L 186.15 54.74
  A 0.88 0.88 0.0 0 1 185.26 55.56
  L 171.02 55.47
  A 1.01 1.01 0.0 0 0 170.01 56.48
  L 170.00 65.81
  A 0.81 0.81 0.0 0 0 170.81 66.62
  L 187.99 66.58
  A 1.42 1.41 0.6 0 1 189.41 68.02
  L 189.29 73.94
  L 161.88 73.87
  Q 161.37 73.87 161.22 73.38
  Q 160.84 72.17 161.34 70.96
  L 161.32 32.45
  Q 160.81 31.74 161.24 31.35
  Q 161.49 31.13 162.08 31.12
  Q 175.49 30.94 189.53 31.00
  Z"
/>
<path fill="#a5a0a2" d="
  M 189.53 31.00
  Q 190.38 33.53 189.90 37.57
  A 1.60 1.60 0.0 0 1 188.31 38.99
  L 170.97 39.00
  A 0.44 0.44 0.0 0 0 170.53 39.43
  L 170.32 48.08
  L 170.21 38.82
  A 0.62 0.61 -89.5 0 1 170.83 38.20
  L 188.00 38.30
  A 1.02 1.00 -87.2 0 0 189.01 37.37
  L 189.53 31.00
  Z"
/>
<path fill="#363636" d="
  M 216.95 31.30
  Q 221.88 51.13 228.41 70.50
  L 229.50 73.37
  Q 229.70 73.90 229.13 73.90
  L 220.45 73.89
  L 217.58 62.87
  A 1.10 1.09 -6.9 0 0 216.53 62.06
  L 203.75 62.05
  Q 202.47 62.04 202.30 63.31
  Q 202.22 63.90 202.47 64.20
  Q 202.57 65.31 201.88 66.20
  Q 201.53 66.26 201.27 67.00
  Q 200.43 69.32 200.34 71.58
  Q 200.51 72.64 199.90 73.37
  Q 199.44 73.93 198.38 73.96
  Q 194.79 74.08 191.22 73.95
  Q 191.25 73.51 190.86 72.97
  L 193.25 64.80
  L 202.62 33.04
  C 202.59 31.81 203.40 31.09 204.64 31.03
  Q 211.29 30.70 216.95 31.30
  Z
  M 209.33 39.24
  Q 209.44 40.82 208.94 41.25
  Q 207.68 43.11 207.24 45.17
  Q 206.67 47.87 206.21 49.20
  Q 205.43 51.46 205.31 53.81
  Q 205.21 54.35 205.44 54.68
  Q 205.63 54.94 206.14 54.99
  Q 210.59 55.38 214.73 54.56
  L 210.57 37.74
  Q 210.45 37.24 209.93 37.22
  Q 209.21 37.20 209.13 38.00
  Q 209.07 38.67 209.33 39.24
  Z"
/>
<path fill="#363636" d="
  M 260.45 65.96
  Q 259.58 70.11 260.33 74.03
  L 233.69 73.95
  A 0.55 0.54 0.0 0 1 233.14 73.41
  L 232.93 32.03
  Q 232.93 30.97 233.98 30.98
  L 240.75 31.01
  Q 241.99 31.01 241.99 32.25
  L 242.00 64.54
  Q 242.00 66.00 243.46 66.00
  L 260.45 65.96
  Z"
/>
<path fill="#363636" d="
  M 277.29 38.97
  Q 277.24 38.39 276.45 38.83
  A 0.80 0.79 -15.0 0 0 276.05 39.52
  L 276.04 73.92
  L 267.67 73.86
  Q 267.13 73.85 267.13 73.31
  L 267.17 68.46
  Q 267.43 69.33 267.39 70.35
  Q 267.38 70.76 267.51 70.37
  Q 267.64 69.98 267.64 69.25
  Q 267.57 49.45 267.19 39.16
  L 261.22 38.84
  Q 258.88 38.38 256.02 38.97
  L 255.09 38.90
  L 254.38 31.09
  L 288.14 31.03
  A 0.79 0.79 0.0 0 1 288.93 31.82
  L 288.93 38.24
  Q 288.93 38.99 288.18 38.99
  L 277.29 38.97
  Z"
/>
<path fill="#363636" d="
  M 301.68 31.01
  L 301.23 46.71
  A 1.21 1.20 -89.8 0 0 302.45 47.95
  L 317.31 47.80
  A 0.57 0.57 0.0 0 0 317.88 47.22
  L 317.61 31.09
  L 326.41 31.10
  A 0.58 0.58 0.0 0 1 326.99 31.68
  L 327.00 73.75
  Q 327.00 74.01 326.75 74.01
  L 317.61 73.98
  Q 317.43 73.98 317.43 73.80
  L 317.47 56.70
  Q 317.47 56.07 316.85 56.07
  L 301.78 55.99
  Q 300.94 60.20 301.20 64.77
  Q 301.46 69.31 301.42 73.99
  L 292.55 74.07
  Q 293.34 53.02 292.63 32.25
  Q 292.62 31.89 292.54 31.11
  L 301.68 31.01
  Z"
/>
<path fill="#a5a0a2" d="
  M 301.68 31.01
  L 301.97 47.00
  A 0.49 0.49 0.0 0 0 302.46 47.48
  L 316.29 47.48
  A 1.23 1.22 0.2 0 0 317.52 46.27
  L 317.61 31.09
  L 317.88 47.22
  A 0.57 0.57 0.0 0 1 317.31 47.80
  L 302.45 47.95
  A 1.21 1.20 -89.8 0 1 301.23 46.71
  L 301.68 31.01
  Z"
/>
<path fill="#a5a0a2" d="
  M 254.38 31.09
  L 255.09 38.90
  Q 254.59 39.01 254.30 38.79
  Q 254.06 38.62 254.02 38.14
  Q 253.73 34.67 254.38 31.09
  Z"
/>
<path fill="#a5a0a2" d="
  M 292.54 31.11
  Q 292.62 31.89 292.63 32.25
  Q 293.34 53.02 292.55 74.07
  Q 291.57 52.80 292.02 31.67
  Q 292.03 31.39 292.30 31.34
  Q 292.66 31.28 292.54 31.11
  Z"
/>
<path fill="#a5a0a2" d="
  M 216.95 31.30
  L 228.41 70.50
  Q 221.88 51.13 216.95 31.30
  Z"
/>
<path fill="#a5a0a2" d="
  M 145.22 31.62
  L 145.39 47.00
  Q 145.40 47.89 144.52 47.88
  L 129.68 47.86
  Q 129.56 47.86 129.50 47.76
  Q 129.45 47.66 129.46 47.49
  L 144.61 47.49
  A 0.43 0.42 -89.3 0 0 145.03 47.07
  L 145.22 31.62
  Z"
/>
<path fill="#a5a0a2" d="
  M 161.32 32.45
  L 161.34 70.96
  Q 160.61 51.73 161.32 32.45
  Z"
/>
<path fill="#a5a0a2" d="
  M 202.62 33.04
  L 193.25 64.80
  L 202.62 33.04
  Z"
/>
<path fill="#ffffff" d="
  M 48.29 40.59
  L 52.05 41.37
  A 1.04 1.04 0.0 0 1 52.05 43.41
  L 48.28 44.18
  A 1.04 1.04 0.0 0 0 47.47 44.99
  L 46.69 48.75
  A 1.04 1.04 0.0 0 1 44.65 48.75
  L 43.88 44.98
  A 1.04 1.04 0.0 0 0 43.07 44.17
  L 39.31 43.39
  A 1.04 1.04 0.0 0 1 39.31 41.35
  L 43.08 40.58
  A 1.04 1.04 0.0 0 0 43.89 39.77
  L 44.67 36.01
  A 1.04 1.04 0.0 0 1 46.71 36.01
  L 47.48 39.78
  A 1.04 1.04 0.0 0 0 48.29 40.59
  Z"
/>
<path fill="#98dfc4" d="
  M 434.82 36.70
  Q 434.98 37.61 434.76 38.36
  Q 434.61 38.86 434.09 38.89
  Q 432.96 38.98 431.76 38.56
  Q 431.96 38.51 432.12 38.38
  Q 432.40 38.16 432.74 38.26
  Q 434.19 38.69 434.82 36.70
  Z"
/>
<path fill="#a5a0a2" d="
  M 214.73 54.56
  Q 212.46 47.38 210.59 41.00
  Q 210.26 39.87 209.33 39.24
  Q 209.07 38.67 209.13 38.00
  Q 209.21 37.20 209.93 37.22
  Q 210.45 37.24 210.57 37.74
  L 214.73 54.56
  Z"
/>
<path fill="#98dfc4" d="
  M 429.97 38.28
  Q 425.77 37.72 422.99 38.22
  C 413.60 39.91 414.39 50.65 415.22 57.55
  C 416.10 64.92 423.35 67.02 429.77 65.92
  Q 425.32 67.07 421.77 66.05
  Q 415.79 64.35 414.64 57.48
  Q 413.25 49.17 415.65 43.28
  Q 417.23 39.41 421.74 38.15
  Q 426.31 36.88 429.97 38.28
  Z"
/>
<path fill="#98dfc4" d="
  M 356.94 72.35
  Q 357.06 72.59 356.97 73.40
  Q 356.91 74.00 356.31 74.00
  L 348.25 74.00
  A 1.25 1.24 -90.0 0 1 347.01 72.75
  L 347.01 39.54
  Q 347.01 39.05 346.52 39.05
  L 335.99 38.98
  Q 335.64 38.53 336.76 38.49
  Q 341.46 38.32 346.62 38.11
  A 1.19 1.18 -1.2 0 1 347.86 39.29
  L 347.84 72.21
  A 0.91 0.90 -86.4 0 0 348.63 73.11
  Q 353.49 73.75 356.94 72.35
  Z"
/>
<path fill="#98dfc4" d="
  M 396.85 38.52
  L 382.09 38.41
  L 396.85 38.52
  Z"
/>
<path fill="#a5a0a2" d="
  M 261.22 38.84
  L 256.02 38.97
  Q 258.88 38.38 261.22 38.84
  Z"
/>
<path fill="#a5a0a2" d="
  M 277.29 38.97
  Q 277.17 39.00 277.07 39.14
  Q 277.00 39.24 277.00 39.38
  Q 277.00 56.26 277.00 73.15
  Q 277.00 73.59 276.82 73.80
  Q 276.52 74.14 276.04 73.92
  L 276.05 39.52
  A 0.80 0.79 -15.0 0 1 276.45 38.83
  Q 277.24 38.39 277.29 38.97
  Z"
/>
<path fill="#a5a0a2" d="
  M 267.19 39.16
  Q 267.57 49.45 267.64 69.25
  Q 267.64 69.98 267.51 70.37
  Q 267.38 70.76 267.39 70.35
  Q 267.43 69.33 267.17 68.46
  L 267.19 39.16
  Z"
/>
<path fill="#a5a0a2" d="
  M 208.94 41.25
  L 205.31 53.81
  Q 205.43 51.46 206.21 49.20
  Q 206.67 47.87 207.24 45.17
  Q 207.68 43.11 208.94 41.25
  Z"
/>
<path fill="#98dfc4" d="
  M 381.91 47.46
  L 397.86 47.09
  Q 399.02 47.07 399.02 48.22
  L 398.98 54.02
  A 1.96 1.95 -89.9 0 1 397.03 55.97
  L 382.01 55.99
  Q 381.80 55.79 381.87 55.61
  A 0.81 0.81 0.0 0 1 382.63 55.11
  Q 389.78 55.26 397.10 55.05
  A 1.19 1.19 0.0 0 0 398.26 53.87
  L 398.29 48.79
  A 0.87 0.86 -2.2 0 0 397.36 47.93
  Q 389.68 48.51 381.91 47.46
  Z"
/>
<path fill="#a5a0a2" d="
  M 186.64 48.02
  L 186.97 55.55
  A 0.43 0.43 0.0 0 1 186.54 56.00
  L 171.02 55.98
  Q 170.52 55.98 170.52 56.48
  L 170.51 65.51
  A 0.50 0.49 -0.0 0 0 171.01 66.00
  L 188.87 66.01
  A 1.12 1.12 0.0 0 1 189.99 67.12
  L 190.03 72.44
  Q 190.04 72.81 190.38 72.96
  Q 190.63 73.07 190.86 72.97
  Q 191.25 73.51 191.22 73.95
  L 189.29 73.94
  L 189.41 68.02
  A 1.42 1.41 0.6 0 0 187.99 66.58
  L 170.81 66.62
  A 0.81 0.81 0.0 0 1 170.00 65.81
  L 170.01 56.48
  A 1.01 1.01 0.0 0 1 171.02 55.47
  L 185.26 55.56
  A 0.88 0.88 0.0 0 0 186.15 54.74
  L 186.64 48.02
  Z"
/>
<path fill="#98dfc4" d="
  M 404.26 50.89
  Q 404.95 51.66 404.84 53.15
  Q 404.73 54.58 404.89 55.39
  Q 405.16 56.84 405.37 58.32
  Q 405.63 60.18 405.95 61.22
  Q 409.40 72.45 422.71 73.86
  Q 409.06 73.66 405.25 60.76
  Q 404.36 57.73 404.26 50.89
  Z"
/>
<circle fill="#26ab69" cx="72.03" cy="54.77" r="2.85"/>
<path fill="#a5a0a2" d="
  M 301.78 55.99
  L 301.90 73.69
  Q 301.90 73.89 301.70 73.91
  Q 301.45 73.95 301.42 73.99
  Q 301.46 69.31 301.20 64.77
  Q 300.94 60.20 301.78 55.99
  Z"
/>
<path fill="#a5a0a2" d="
  M 145.05 56.46
  Q 145.20 56.38 145.32 56.44
  Q 145.43 56.50 145.43 56.63
  Q 145.36 64.71 145.38 72.66
  Q 145.38 73.04 145.62 73.35
  Q 145.87 73.66 146.23 73.96
  L 145.70 73.93
  Q 145.12 73.90 145.12 73.32
  L 145.05 56.46
  Z"
/>
<path fill="#a5a0a2" d="
  M 220.45 73.89
  C 218.74 72.10 219.17 70.52 218.61 68.84
  Q 217.75 66.20 216.84 63.53
  Q 216.67 63.05 216.17 63.04
  Q 210.32 62.95 204.50 63.06
  Q 203.09 63.08 202.47 64.20
  Q 202.22 63.90 202.30 63.31
  Q 202.47 62.04 203.75 62.05
  L 216.53 62.06
  A 1.10 1.09 -6.9 0 1 217.58 62.87
  L 220.45 73.89
  Z"
/>
<path fill="#98dfc4" d="
  M 398.75 65.54
  Q 389.98 66.12 383.25 65.98
  Q 382.83 65.97 382.75 65.40
  L 398.75 65.54
  Z"
/>
<path fill="#a5a0a2" d="
  M 260.45 65.96
  Q 261.90 70.54 260.33 74.03
  Q 259.58 70.11 260.45 65.96
  Z"
/>
<path fill="#a5a0a2" d="
  M 201.88 66.20
  L 200.34 71.58
  Q 200.43 69.32 201.27 67.00
  Q 201.53 66.26 201.88 66.20
  Z"
/>
<path fill="#98dfc4" d="
  M 401.61 66.21
  L 401.96 72.67
  A 1.25 1.24 88.9 0 1 400.70 73.99
  L 372.99 73.61
  L 399.95 73.32
  A 1.62 1.62 0.0 0 0 401.55 71.72
  L 401.61 66.21
  Z"
/>
<path fill="#98dfc4" d="
  M 448.68 72.17
  Q 448.64 72.73 447.85 73.61
  Q 447.51 73.99 447.01 74.03
  Q 442.66 74.42 439.01 73.35
  Q 445.20 73.91 448.68 72.17
  Z"
/>
</svg>
